<svg xmlns="http://www.w3.org/2000/svg" xmlns:xlink="http://www.w3.org/1999/xlink" viewBox="0 0 440 220" width="440" height="220"><circle r="1.5" cx="102" cy="69" fill="rgba(11, 11, 170, 0.91)"></circle><path d="M 185.500,94.000 C 181.000,91.500 181.000,91.500 176.500,89.000" stroke-width="4.963" stroke="rgba(11, 11, 170, 0.91)" fill="none" stroke-linecap="round"></path><path d="M 176.500,89.000 C 172.167,86.154 172.000,86.500 167.500,84.000" stroke-width="3.774" stroke="rgba(11, 11, 170, 0.91)" fill="none" stroke-linecap="round"></path><path d="M 167.500,84.000 C 159.034,80.414 159.167,80.154 150.500,77.000" stroke-width="2.882" stroke="rgba(11, 11, 170, 0.91)" fill="none" stroke-linecap="round"></path><path d="M 150.500,77.000 C 144.207,73.775 144.034,74.414 137.500,72.000" stroke-width="2.969" stroke="rgba(11, 11, 170, 0.91)" fill="none" stroke-linecap="round"></path><path d="M 137.500,72.000 C 127.060,69.553 127.207,69.275 116.500,68.000" stroke-width="2.553" stroke="rgba(11, 11, 170, 0.91)" fill="none" stroke-linecap="round"></path><path d="M 116.500,68.000 C 110.009,67.260 110.060,67.053 103.500,67.000" stroke-width="2.912" stroke="rgba(11, 11, 170, 0.91)" fill="none" stroke-linecap="round"></path><path d="M 103.500,67.000 C 97.492,66.770 97.509,66.760 91.500,67.000" stroke-width="3.117" stroke="rgba(11, 11, 170, 0.91)" fill="none" stroke-linecap="round"></path><path d="M 91.500,67.000 C 84.421,66.975 84.492,67.270 77.500,68.000" stroke-width="3.032" stroke="rgba(11, 11, 170, 0.91)" fill="none" stroke-linecap="round"></path><path d="M 77.500,68.000 C 70.507,68.357 70.921,68.975 64.500,71.000" stroke-width="3.057" stroke="rgba(11, 11, 170, 0.91)" fill="none" stroke-linecap="round"></path><path d="M 64.500,71.000 C 57.917,74.322 58.007,73.857 52.500,79.000" stroke-width="2.987" stroke="rgba(11, 11, 170, 0.91)" fill="none" stroke-linecap="round"></path><path d="M 52.500,79.000 C 46.894,84.055 46.917,83.822 42.500,90.000" stroke-width="2.937" stroke="rgba(11, 11, 170, 0.91)" fill="none" stroke-linecap="round"></path><path d="M 42.500,90.000 C 38.807,95.895 38.394,95.555 35.500,102.000" stroke-width="2.988" stroke="rgba(11, 11, 170, 0.91)" fill="none" stroke-linecap="round"></path><path d="M 35.500,102.000 C 31.471,107.757 32.307,107.895 29.500,114.000" stroke-width="3.038" stroke="rgba(11, 11, 170, 0.91)" fill="none" stroke-linecap="round"></path><path d="M 29.500,114.000 C 28.515,117.716 28.471,117.257 29.500,121.000" stroke-width="3.602" stroke="rgba(11, 11, 170, 0.91)" fill="none" stroke-linecap="round"></path><path d="M 29.500,121.000 C 31.382,128.280 31.515,127.716 35.500,134.000" stroke-width="3.134" stroke="rgba(11, 11, 170, 0.91)" fill="none" stroke-linecap="round"></path><path d="M 35.500,134.000 C 41.380,140.125 40.382,140.780 47.500,146.000" stroke-width="2.840" stroke="rgba(11, 11, 170, 0.91)" fill="none" stroke-linecap="round"></path><path d="M 47.500,146.000 C 53.437,152.768 53.880,152.125 60.500,158.000" stroke-width="2.720" stroke="rgba(11, 11, 170, 0.91)" fill="none" stroke-linecap="round"></path><path d="M 60.500,158.000 C 67.125,162.839 66.937,162.768 74.500,166.000" stroke-width="2.776" stroke="rgba(11, 11, 170, 0.91)" fill="none" stroke-linecap="round"></path><path d="M 74.500,166.000 C 84.703,171.122 84.625,170.339 95.500,173.000" stroke-width="2.471" stroke="rgba(11, 11, 170, 0.91)" fill="none" stroke-linecap="round"></path><path d="M 95.500,173.000 C 107.994,173.795 107.703,175.122 120.500,174.000" stroke-width="2.270" stroke="rgba(11, 11, 170, 0.91)" fill="none" stroke-linecap="round"></path><path d="M 120.500,174.000 C 138.696,175.978 138.494,174.295 156.500,174.000" stroke-width="1.864" stroke="rgba(11, 11, 170, 0.91)" fill="none" stroke-linecap="round"></path><path d="M 156.500,174.000 C 179.256,170.485 179.196,171.478 201.500,165.000" stroke-width="1.557" stroke="rgba(11, 11, 170, 0.91)" fill="none" stroke-linecap="round"></path><path d="M 201.500,165.000 C 215.904,161.491 215.756,161.485 229.500,156.000" stroke-width="1.832" stroke="rgba(11, 11, 170, 0.91)" fill="none" stroke-linecap="round"></path><path d="M 229.500,156.000 C 242.694,151.593 241.904,150.991 253.500,144.000" stroke-width="2.012" stroke="rgba(11, 11, 170, 0.91)" fill="none" stroke-linecap="round"></path><path d="M 253.500,144.000 C 261.070,137.717 261.194,138.593 266.500,130.000" stroke-width="2.369" stroke="rgba(11, 11, 170, 0.91)" fill="none" stroke-linecap="round"></path><path d="M 266.500,130.000 C 271.171,123.867 270.570,124.217 272.500,117.000" stroke-width="2.759" stroke="rgba(11, 11, 170, 0.91)" fill="none" stroke-linecap="round"></path><path d="M 272.500,117.000 C 273.727,107.833 274.171,108.367 272.500,99.000" stroke-width="2.680" stroke="rgba(11, 11, 170, 0.91)" fill="none" stroke-linecap="round"></path><path d="M 272.500,99.000 C 270.886,89.619 271.227,89.833 267.500,81.000" stroke-width="2.620" stroke="rgba(11, 11, 170, 0.91)" fill="none" stroke-linecap="round"></path><path d="M 267.500,81.000 C 265.116,75.519 265.386,75.619 261.500,71.000" stroke-width="3.033" stroke="rgba(11, 11, 170, 0.91)" fill="none" stroke-linecap="round"></path><path d="M 261.500,71.000 C 256.654,65.832 257.116,65.519 251.500,61.000" stroke-width="3.000" stroke="rgba(11, 11, 170, 0.91)" fill="none" stroke-linecap="round"></path><path d="M 251.500,61.000 C 248.763,58.098 248.654,58.332 245.500,56.000" stroke-width="3.506" stroke="rgba(11, 11, 170, 0.91)" fill="none" stroke-linecap="round"></path><path d="M 245.500,56.000 C 241.686,53.477 241.763,53.598 237.500,52.000" stroke-width="3.577" stroke="rgba(11, 11, 170, 0.91)" fill="none" stroke-linecap="round"></path><path d="M 237.500,52.000 C 233.038,50.000 233.186,50.477 228.500,50.000" stroke-width="3.571" stroke="rgba(11, 11, 170, 0.91)" fill="none" stroke-linecap="round"></path><path d="M 228.500,50.000 C 220.797,49.376 221.538,50.000 214.500,52.000" stroke-width="3.140" stroke="rgba(11, 11, 170, 0.91)" fill="none" stroke-linecap="round"></path><path d="M 214.500,52.000 C 209.343,55.817 208.797,54.376 204.500,60.000" stroke-width="3.129" stroke="rgba(11, 11, 170, 0.91)" fill="none" stroke-linecap="round"></path><path d="M 204.500,60.000 C 197.182,64.486 198.343,65.317 192.500,71.000" stroke-width="2.882" stroke="rgba(11, 11, 170, 0.91)" fill="none" stroke-linecap="round"></path><path d="M 192.500,71.000 C 185.279,80.916 185.682,80.486 181.500,92.000" stroke-width="2.422" stroke="rgba(11, 11, 170, 0.91)" fill="none" stroke-linecap="round"></path><path d="M 181.500,92.000 C 178.718,103.432 177.779,102.916 177.500,115.000" stroke-width="2.326" stroke="rgba(11, 11, 170, 0.91)" fill="none" stroke-linecap="round"></path><path d="M 177.500,115.000 C 176.843,122.552 176.718,122.432 177.500,130.000" stroke-width="2.702" stroke="rgba(11, 11, 170, 0.91)" fill="none" stroke-linecap="round"></path><path d="M 177.500,130.000 C 178.305,139.670 178.343,139.552 180.500,149.000" stroke-width="2.597" stroke="rgba(11, 11, 170, 0.91)" fill="none" stroke-linecap="round"></path><path d="M 180.500,149.000 C 181.737,157.180 182.305,156.670 185.500,164.000" stroke-width="2.755" stroke="rgba(11, 11, 170, 0.91)" fill="none" stroke-linecap="round"></path><path d="M 185.500,164.000 C 190.393,171.602 189.737,171.680 196.500,178.000" stroke-width="2.690" stroke="rgba(11, 11, 170, 0.91)" fill="none" stroke-linecap="round"></path><path d="M 196.500,178.000 C 201.041,182.774 200.893,182.602 206.500,186.000" stroke-width="2.980" stroke="rgba(11, 11, 170, 0.91)" fill="none" stroke-linecap="round"></path><path d="M 206.500,186.000 C 212.357,188.952 212.041,189.274 218.500,191.000" stroke-width="3.065" stroke="rgba(11, 11, 170, 0.91)" fill="none" stroke-linecap="round"></path><path d="M 218.500,191.000 C 222.936,192.585 222.857,192.452 227.500,193.000" stroke-width="3.401" stroke="rgba(11, 11, 170, 0.91)" fill="none" stroke-linecap="round"></path><path d="M 227.500,193.000 C 234.109,193.882 233.936,193.585 240.500,193.000" stroke-width="3.187" stroke="rgba(11, 11, 170, 0.91)" fill="none" stroke-linecap="round"></path><path d="M 240.500,193.000 C 249.255,192.623 248.609,191.882 256.500,189.000" stroke-width="2.883" stroke="rgba(11, 11, 170, 0.91)" fill="none" stroke-linecap="round"></path><path d="M 256.500,189.000 C 266.481,183.561 266.255,184.123 274.500,176.000" stroke-width="2.493" stroke="rgba(11, 11, 170, 0.91)" fill="none" stroke-linecap="round"></path><path d="M 274.500,176.000 C 283.792,166.563 283.981,167.061 291.500,156.000" stroke-width="2.227" stroke="rgba(11, 11, 170, 0.91)" fill="none" stroke-linecap="round"></path><path d="M 291.500,156.000 C 298.034,148.065 297.292,148.063 301.500,139.000" stroke-width="2.424" stroke="rgba(11, 11, 170, 0.91)" fill="none" stroke-linecap="round"></path><path d="M 301.500,139.000 C 303.475,130.542 304.534,131.065 304.500,122.000" stroke-width="2.615" stroke="rgba(11, 11, 170, 0.91)" fill="none" stroke-linecap="round"></path><path d="M 304.500,122.000 C 305.496,117.735 304.975,118.042 304.500,114.000" stroke-width="3.318" stroke="rgba(11, 11, 170, 0.91)" fill="none" stroke-linecap="round"></path><path d="M 304.500,114.000 C 303.111,109.902 303.496,110.235 300.500,107.000" stroke-width="3.603" stroke="rgba(11, 11, 170, 0.91)" fill="none" stroke-linecap="round"></path><path d="M 300.500,107.000 C 297.802,103.292 298.611,104.902 295.500,104.000" stroke-width="3.952" stroke="rgba(11, 11, 170, 0.91)" fill="none" stroke-linecap="round"></path><path d="M 295.500,104.000 C 289.521,106.509 291.302,105.292 287.500,111.000" stroke-width="4.387" stroke="rgba(11, 11, 170, 0.91)" fill="none" stroke-linecap="round"></path><path d="M 287.500,111.000 C 286.733,117.490 285.021,116.509 286.500,124.000" stroke-width="3.399" stroke="rgba(11, 11, 170, 0.91)" fill="none" stroke-linecap="round"></path><path d="M 286.500,124.000 C 285.056,131.778 286.233,131.490 286.500,139.000" stroke-width="3.036" stroke="rgba(11, 11, 170, 0.91)" fill="none" stroke-linecap="round"></path><path d="M 286.500,139.000 C 288.203,147.411 288.056,146.778 292.500,154.000" stroke-width="2.866" stroke="rgba(11, 11, 170, 0.91)" fill="none" stroke-linecap="round"></path><path d="M 292.500,154.000 C 296.744,158.325 295.703,158.911 301.500,162.000" stroke-width="3.098" stroke="rgba(11, 11, 170, 0.91)" fill="none" stroke-linecap="round"></path><path d="M 301.500,162.000 C 307.826,166.773 307.744,166.825 314.500,171.000" stroke-width="2.905" stroke="rgba(11, 11, 170, 0.91)" fill="none" stroke-linecap="round"></path><path d="M 314.500,171.000 C 322.410,177.624 322.826,176.273 331.500,181.000" stroke-width="2.624" stroke="rgba(11, 11, 170, 0.91)" fill="none" stroke-linecap="round"></path><path d="M 331.500,181.000 C 340.451,183.095 339.910,184.124 349.500,184.000" stroke-width="2.627" stroke="rgba(11, 11, 170, 0.91)" fill="none" stroke-linecap="round"></path><path d="M 349.500,184.000 C 355.562,184.566 355.451,184.595 361.500,184.000" stroke-width="3.012" stroke="rgba(11, 11, 170, 0.91)" fill="none" stroke-linecap="round"></path><path d="M 361.500,184.000 C 366.423,183.919 366.062,183.566 370.500,182.000" stroke-width="3.381" stroke="rgba(11, 11, 170, 0.91)" fill="none" stroke-linecap="round"></path><path d="M 370.500,182.000 C 375.511,179.843 374.923,179.919 378.500,176.000" stroke-width="3.437" stroke="rgba(11, 11, 170, 0.91)" fill="none" stroke-linecap="round"></path><path d="M 378.500,176.000 C 382.394,170.317 382.511,170.843 384.500,164.000" stroke-width="3.164" stroke="rgba(11, 11, 170, 0.91)" fill="none" stroke-linecap="round"></path><path d="M 384.500,164.000 C 387.488,155.108 387.394,155.317 388.500,146.000" stroke-width="2.757" stroke="rgba(11, 11, 170, 0.91)" fill="none" stroke-linecap="round"></path><path d="M 388.500,146.000 C 388.500,137.000 389.488,137.108 388.500,128.000" stroke-width="2.679" stroke="rgba(11, 11, 170, 0.91)" fill="none" stroke-linecap="round"></path><path d="M 388.500,128.000 C 388.812,120.483 388.500,120.500 388.500,113.000" stroke-width="2.832" stroke="rgba(11, 11, 170, 0.91)" fill="none" stroke-linecap="round"></path><path d="M 388.500,113.000 C 386.531,103.225 388.312,108.483 387.500,104.000" stroke-width="3.324" stroke="rgba(11, 11, 170, 0.91)" fill="none" stroke-linecap="round"></path><path d="M 387.500,104.000 C 390.064,110.753 389.031,105.225 393.500,117.000" stroke-width="4.177" stroke="rgba(11, 11, 170, 0.91)" fill="none" stroke-linecap="round"></path><path d="M 393.500,117.000 C 395.920,120.560 395.564,120.753 398.500,124.000" stroke-width="3.800" stroke="rgba(11, 11, 170, 0.91)" fill="none" stroke-linecap="round"></path><path d="M 398.500,124.000 C 400.148,126.884 400.420,126.560 402.500,129.000" stroke-width="3.949" stroke="rgba(11, 11, 170, 0.91)" fill="none" stroke-linecap="round"></path><path d="M 402.500,129.000 C 406.862,133.546 405.148,131.384 408.500,133.000" stroke-width="4.377" stroke="rgba(11, 11, 170, 0.91)" fill="none" stroke-linecap="round"></path></svg>