<svg xmlns="http://www.w3.org/2000/svg" xmlns:xlink="http://www.w3.org/1999/xlink" viewBox="0 0 440 220" width="440" height="220"><path d="M 18.681,178.299 C 20.122,175.881 20.347,176.076 22.014,173.854" stroke-width="5.455" stroke="rgba(11, 11, 170, 0.91)" fill="none" stroke-linecap="round"></path><path d="M 22.014,173.854 C 28.125,167.743 27.900,167.548 34.236,161.632" stroke-width="3.268" stroke="rgba(11, 11, 170, 0.91)" fill="none" stroke-linecap="round"></path><path d="M 34.236,161.632 C 39.792,156.076 39.792,156.076 45.347,150.521" stroke-width="3.019" stroke="rgba(11, 11, 170, 0.91)" fill="none" stroke-linecap="round"></path><path d="M 45.347,150.521 C 50.192,145.354 50.347,145.521 55.347,140.521" stroke-width="3.109" stroke="rgba(11, 11, 170, 0.91)" fill="none" stroke-linecap="round"></path><path d="M 55.347,140.521 C 59.297,137.257 59.081,137.020 63.125,133.854" stroke-width="3.327" stroke="rgba(11, 11, 170, 0.91)" fill="none" stroke-linecap="round"></path><path d="M 63.125,133.854 C 69.381,128.450 69.297,128.368 75.347,122.743" stroke-width="2.980" stroke="rgba(11, 11, 170, 0.91)" fill="none" stroke-linecap="round"></path><path d="M 75.347,122.743 C 81.875,115.932 82.158,116.228 88.681,109.410" stroke-width="2.754" stroke="rgba(11, 11, 170, 0.91)" fill="none" stroke-linecap="round"></path><path d="M 88.681,109.410 C 95.255,103.195 95.209,103.154 102.014,97.188" stroke-width="2.734" stroke="rgba(11, 11, 170, 0.91)" fill="none" stroke-linecap="round"></path><path d="M 102.014,97.188 C 110.077,89.626 110.255,89.862 118.681,82.743" stroke-width="2.465" stroke="rgba(11, 11, 170, 0.91)" fill="none" stroke-linecap="round"></path><path d="M 118.681,82.743 C 127.080,76.721 126.743,76.293 135.347,70.521" stroke-width="2.516" stroke="rgba(11, 11, 170, 0.91)" fill="none" stroke-linecap="round"></path><path d="M 135.347,70.521 C 147.400,62.090 147.080,61.721 158.681,52.743" stroke-width="2.181" stroke="rgba(11, 11, 170, 0.91)" fill="none" stroke-linecap="round"></path><path d="M 158.681,52.743 C 165.970,44.911 166.844,45.979 174.236,38.299" stroke-width="2.396" stroke="rgba(11, 11, 170, 0.91)" fill="none" stroke-linecap="round"></path><path d="M 174.236,38.299 C 183.177,32.262 182.637,31.578 192.014,26.076" stroke-width="2.395" stroke="rgba(11, 11, 170, 0.91)" fill="none" stroke-linecap="round"></path><path d="M 192.014,26.076 C 199.533,20.108 199.844,20.595 207.569,14.965" stroke-width="2.510" stroke="rgba(11, 11, 170, 0.91)" fill="none" stroke-linecap="round"></path><path d="M 207.569,14.965 C 213.467,11.110 213.422,11.220 219.792,8.299" stroke-width="2.891" stroke="rgba(11, 11, 170, 0.91)" fill="none" stroke-linecap="round"></path><path d="M 219.792,8.299 C 227.160,3.347 223.467,6.665 227.569,6.076" stroke-width="3.435" stroke="rgba(11, 11, 170, 0.91)" fill="none" stroke-linecap="round"></path><path d="M 227.569,6.076 C 226.697,18.705 228.827,14.458 223.125,30.521" stroke-width="4.023" stroke="rgba(11, 11, 170, 0.91)" fill="none" stroke-linecap="round"></path><path d="M 223.125,30.521 C 219.649,43.048 219.475,42.594 213.125,53.854" stroke-width="2.441" stroke="rgba(11, 11, 170, 0.91)" fill="none" stroke-linecap="round"></path><path d="M 213.125,53.854 C 201.176,72.315 201.872,72.493 187.569,89.410" stroke-width="1.701" stroke="rgba(11, 11, 170, 0.91)" fill="none" stroke-linecap="round"></path><path d="M 187.569,89.410 C 179.103,99.297 179.509,99.537 169.792,108.299" stroke-width="2.038" stroke="rgba(11, 11, 170, 0.91)" fill="none" stroke-linecap="round"></path><path d="M 169.792,108.299 C 162.224,115.242 162.437,115.408 154.236,121.632" stroke-width="2.420" stroke="rgba(11, 11, 170, 0.91)" fill="none" stroke-linecap="round"></path><path d="M 154.236,121.632 C 149.781,126.906 151.112,124.131 147.569,126.076" stroke-width="3.218" stroke="rgba(11, 11, 170, 0.91)" fill="none" stroke-linecap="round"></path><path d="M 147.569,126.076 C 145.039,122.000 145.337,125.239 145.347,118.299" stroke-width="4.260" stroke="rgba(11, 11, 170, 0.91)" fill="none" stroke-linecap="round"></path><path d="M 145.347,118.299 C 146.942,115.476 145.594,115.334 148.681,112.743" stroke-width="4.077" stroke="rgba(11, 11, 170, 0.91)" fill="none" stroke-linecap="round"></path><path d="M 148.681,112.743 C 153.416,101.965 154.719,103.254 160.903,93.854" stroke-width="2.681" stroke="rgba(11, 11, 170, 0.91)" fill="none" stroke-linecap="round"></path><path d="M 160.903,93.854 C 167.788,88.285 166.749,87.521 175.347,83.854" stroke-width="2.681" stroke="rgba(11, 11, 170, 0.91)" fill="none" stroke-linecap="round"></path><path d="M 175.347,83.854 C 184.140,79.208 183.899,78.841 193.125,74.965" stroke-width="2.619" stroke="rgba(11, 11, 170, 0.91)" fill="none" stroke-linecap="round"></path><path d="M 193.125,74.965 C 203.995,69.306 204.140,69.764 215.347,64.965" stroke-width="2.334" stroke="rgba(11, 11, 170, 0.91)" fill="none" stroke-linecap="round"></path><path d="M 215.347,64.965 C 225.539,59.091 222.884,62.084 230.903,60.521" stroke-width="2.741" stroke="rgba(11, 11, 170, 0.91)" fill="none" stroke-linecap="round"></path><path d="M 230.903,60.521 C 232.498,65.052 233.873,61.313 232.014,69.410" stroke-width="3.903" stroke="rgba(11, 11, 170, 0.91)" fill="none" stroke-linecap="round"></path><path d="M 232.014,69.410 C 230.869,75.172 231.387,75.052 228.681,80.521" stroke-width="3.430" stroke="rgba(11, 11, 170, 0.91)" fill="none" stroke-linecap="round"></path><path d="M 228.681,80.521 C 225.580,87.316 225.869,87.394 222.014,93.854" stroke-width="3.050" stroke="rgba(11, 11, 170, 0.91)" fill="none" stroke-linecap="round"></path><path d="M 222.014,93.854 C 218.936,99.582 218.914,99.538 215.347,104.965" stroke-width="3.201" stroke="rgba(11, 11, 170, 0.91)" fill="none" stroke-linecap="round"></path><path d="M 215.347,104.965 C 208.681,114.996 212.270,109.582 208.681,113.854" stroke-width="3.339" stroke="rgba(11, 11, 170, 0.91)" fill="none" stroke-linecap="round"></path><path d="M 208.681,113.854 C 210.884,105.786 208.681,112.219 215.347,99.410" stroke-width="4.129" stroke="rgba(11, 11, 170, 0.91)" fill="none" stroke-linecap="round"></path><path d="M 215.347,99.410 C 219.656,95.353 218.661,94.675 224.236,91.632" stroke-width="3.527" stroke="rgba(11, 11, 170, 0.91)" fill="none" stroke-linecap="round"></path><path d="M 224.236,91.632 C 228.211,87.278 228.545,88.131 233.125,84.965" stroke-width="3.438" stroke="rgba(11, 11, 170, 0.91)" fill="none" stroke-linecap="round"></path><path d="M 233.125,84.965 C 238.077,83.416 237.655,82.833 243.125,82.743" stroke-width="3.432" stroke="rgba(11, 11, 170, 0.91)" fill="none" stroke-linecap="round"></path><path d="M 243.125,82.743 C 247.784,80.986 246.410,82.305 249.792,82.743" stroke-width="3.836" stroke="rgba(11, 11, 170, 0.91)" fill="none" stroke-linecap="round"></path><path d="M 249.792,82.743 C 252.572,86.893 252.228,84.875 252.014,90.521" stroke-width="4.489" stroke="rgba(11, 11, 170, 0.91)" fill="none" stroke-linecap="round"></path><path d="M 252.014,90.521 C 249.720,93.809 251.461,94.115 247.569,97.188" stroke-width="4.001" stroke="rgba(11, 11, 170, 0.91)" fill="none" stroke-linecap="round"></path><path d="M 247.569,97.188 C 243.412,103.155 245.831,99.920 244.236,102.743" stroke-width="4.003" stroke="rgba(11, 11, 170, 0.91)" fill="none" stroke-linecap="round"></path><path d="M 244.236,102.743 C 248.125,98.854 245.635,102.044 252.014,94.965" stroke-width="4.549" stroke="rgba(11, 11, 170, 0.91)" fill="none" stroke-linecap="round"></path><path d="M 252.014,94.965 C 255.414,90.398 255.903,91.076 259.792,87.188" stroke-width="3.691" stroke="rgba(11, 11, 170, 0.91)" fill="none" stroke-linecap="round"></path><path d="M 259.792,87.188 C 264.173,84.824 263.747,84.287 268.681,82.743" stroke-width="3.533" stroke="rgba(11, 11, 170, 0.91)" fill="none" stroke-linecap="round"></path><path d="M 268.681,82.743 C 273.264,78.965 271.395,81.490 274.236,80.521" stroke-width="4.324" stroke="rgba(11, 11, 170, 0.91)" fill="none" stroke-linecap="round"></path><path d="M 274.236,80.521 C 275.289,86.368 276.042,83.410 274.236,91.632" stroke-width="4.242" stroke="rgba(11, 11, 170, 0.91)" fill="none" stroke-linecap="round"></path><path d="M 274.236,91.632 C 271.800,94.197 273.622,94.701 270.903,97.188" stroke-width="4.122" stroke="rgba(11, 11, 170, 0.91)" fill="none" stroke-linecap="round"></path><path d="M 270.903,97.188 C 269.020,103.012 270.133,99.752 270.903,102.743" stroke-width="4.159" stroke="rgba(11, 11, 170, 0.91)" fill="none" stroke-linecap="round"></path><path d="M 270.903,102.743 C 278.331,97.779 276.798,101.901 286.458,94.965" stroke-width="4.583" stroke="rgba(11, 11, 170, 0.91)" fill="none" stroke-linecap="round"></path><path d="M 286.458,94.965 C 293.109,93.745 292.775,92.779 299.792,92.743" stroke-width="3.462" stroke="rgba(11, 11, 170, 0.91)" fill="none" stroke-linecap="round"></path><path d="M 299.792,92.743 C 306.298,90.271 304.220,92.079 308.681,91.632" stroke-width="3.614" stroke="rgba(11, 11, 170, 0.91)" fill="none" stroke-linecap="round"></path><path d="M 308.681,91.632 C 308.346,94.468 310.187,92.493 307.569,97.188" stroke-width="4.619" stroke="rgba(11, 11, 170, 0.91)" fill="none" stroke-linecap="round"></path><path d="M 307.569,97.188 C 304.236,105.811 306.124,102.246 304.236,107.188" stroke-width="4.387" stroke="rgba(11, 11, 170, 0.91)" fill="none" stroke-linecap="round"></path><path d="M 304.236,107.188 C 305.476,104.025 304.236,108.033 307.569,101.632" stroke-width="4.897" stroke="rgba(11, 11, 170, 0.91)" fill="none" stroke-linecap="round"></path><path d="M 307.569,101.632 C 309.607,98.566 309.365,99.580 312.014,98.299" stroke-width="4.314" stroke="rgba(11, 11, 170, 0.91)" fill="none" stroke-linecap="round"></path><path d="M 312.014,98.299 C 314.777,100.736 314.607,98.011 317.569,100.521" stroke-width="5.013" stroke="rgba(11, 11, 170, 0.91)" fill="none" stroke-linecap="round"></path><path d="M 317.569,100.521 C 322.603,96.837 322.000,100.180 326.458,97.188" stroke-width="4.565" stroke="rgba(11, 11, 170, 0.91)" fill="none" stroke-linecap="round"></path><path d="M 326.458,97.188 C 327.656,101.395 328.714,97.393 329.792,101.632" stroke-width="5.076" stroke="rgba(11, 11, 170, 0.91)" fill="none" stroke-linecap="round"></path><path d="M 329.792,101.632 C 332.995,98.565 332.656,101.950 336.458,98.299" stroke-width="5.132" stroke="rgba(11, 11, 170, 0.91)" fill="none" stroke-linecap="round"></path><path d="M 336.458,98.299 C 340.284,99.862 340.217,98.009 344.236,100.521" stroke-width="4.686" stroke="rgba(11, 11, 170, 0.91)" fill="none" stroke-linecap="round"></path><path d="M 344.236,100.521 C 347.014,100.521 346.951,100.973 349.792,100.521" stroke-width="4.963" stroke="rgba(11, 11, 170, 0.91)" fill="none" stroke-linecap="round"></path><path d="M 165.347,70.521 C 168.211,68.982 168.125,68.854 170.903,67.188" stroke-width="5.466" stroke="rgba(11, 11, 170, 0.91)" fill="none" stroke-linecap="round"></path><path d="M 170.903,67.188 C 172.808,64.831 173.211,65.649 175.347,63.854" stroke-width="4.494" stroke="rgba(11, 11, 170, 0.91)" fill="none" stroke-linecap="round"></path><path d="M 175.347,63.854 C 180.437,63.035 180.030,62.053 185.347,61.632" stroke-width="4.351" stroke="rgba(11, 11, 170, 0.91)" fill="none" stroke-linecap="round"></path></svg>