<svg xmlns="http://www.w3.org/2000/svg" xmlns:xlink="http://www.w3.org/1999/xlink" viewBox="0 0 532 300" width="532" height="300"><path d="M 251.000,141.500 C 247.587,139.878 247.500,140.500 244.000,139.500" stroke-width="3.436" stroke="rgba(11, 11, 170, 0.91)" fill="none" stroke-linecap="round"></path><path d="M 244.000,139.500 C 237.976,139.052 238.087,138.878 232.000,139.500" stroke-width="3.338" stroke="rgba(11, 11, 170, 0.91)" fill="none" stroke-linecap="round"></path><path d="M 232.000,139.500 C 217.631,139.305 217.976,140.552 204.000,142.500" stroke-width="2.308" stroke="rgba(11, 11, 170, 0.91)" fill="none" stroke-linecap="round"></path><path d="M 204.000,142.500 C 185.256,146.805 185.631,146.805 168.000,154.500" stroke-width="1.935" stroke="rgba(11, 11, 170, 0.91)" fill="none" stroke-linecap="round"></path><path d="M 168.000,154.500 C 146.929,162.717 148.256,163.305 130.000,175.500" stroke-width="1.620" stroke="rgba(11, 11, 170, 0.91)" fill="none" stroke-linecap="round"></path><path d="M 130.000,175.500 C 122.551,182.759 122.429,181.217 119.000,191.500" stroke-width="2.214" stroke="rgba(11, 11, 170, 0.91)" fill="none" stroke-linecap="round"></path><path d="M 119.000,191.500 C 109.846,206.357 116.051,198.759 117.000,207.500" stroke-width="2.692" stroke="rgba(11, 11, 170, 0.91)" fill="none" stroke-linecap="round"></path><path d="M 117.000,207.500 C 190.786,216.141 181.846,217.857 263.000,214.500" stroke-width="1.855" stroke="rgba(11, 11, 170, 0.91)" fill="none" stroke-linecap="round"></path><path d="M 263.000,214.500 C 278.600,210.331 278.786,214.141 293.000,203.500" stroke-width="1.870" stroke="rgba(11, 11, 170, 0.91)" fill="none" stroke-linecap="round"></path><path d="M 293.000,203.500 C 319.501,193.755 317.600,191.831 341.000,177.500" stroke-width="1.410" stroke="rgba(11, 11, 170, 0.91)" fill="none" stroke-linecap="round"></path><path d="M 341.000,177.500 C 363.352,162.037 360.501,162.755 375.000,141.500" stroke-width="1.429" stroke="rgba(11, 11, 170, 0.91)" fill="none" stroke-linecap="round"></path><path d="M 375.000,141.500 C 378.671,125.952 382.352,128.537 379.000,110.500" stroke-width="1.732" stroke="rgba(11, 11, 170, 0.91)" fill="none" stroke-linecap="round"></path><path d="M 379.000,110.500 C 380.320,100.764 379.171,102.452 376.000,94.500" stroke-width="2.399" stroke="rgba(11, 11, 170, 0.91)" fill="none" stroke-linecap="round"></path><path d="M 376.000,94.500 C 368.510,85.463 370.320,86.264 359.000,81.500" stroke-width="2.462" stroke="rgba(11, 11, 170, 0.91)" fill="none" stroke-linecap="round"></path><path d="M 359.000,81.500 C 349.166,78.090 350.510,77.963 340.000,79.500" stroke-width="2.470" stroke="rgba(11, 11, 170, 0.91)" fill="none" stroke-linecap="round"></path><path d="M 340.000,79.500 C 327.969,80.938 329.666,81.090 320.000,87.500" stroke-width="2.419" stroke="rgba(11, 11, 170, 0.91)" fill="none" stroke-linecap="round"></path><path d="M 320.000,87.500 C 310.270,96.449 310.969,94.938 306.000,107.500" stroke-width="2.341" stroke="rgba(11, 11, 170, 0.91)" fill="none" stroke-linecap="round"></path><path d="M 306.000,107.500 C 303.000,119.504 301.770,118.449 303.000,131.500" stroke-width="2.327" stroke="rgba(11, 11, 170, 0.91)" fill="none" stroke-linecap="round"></path><path d="M 303.000,131.500 C 300.454,144.992 303.000,143.004 306.000,154.500" stroke-width="2.363" stroke="rgba(11, 11, 170, 0.91)" fill="none" stroke-linecap="round"></path><path d="M 306.000,154.500 C 317.490,168.692 314.454,168.992 331.000,179.500" stroke-width="1.960" stroke="rgba(11, 11, 170, 0.91)" fill="none" stroke-linecap="round"></path><path d="M 331.000,179.500 C 335.827,182.500 334.990,182.692 341.000,182.500" stroke-width="2.825" stroke="rgba(11, 11, 170, 0.91)" fill="none" stroke-linecap="round"></path><path d="M 341.000,182.500 C 365.937,185.026 364.827,182.500 389.000,179.500" stroke-width="1.654" stroke="rgba(11, 11, 170, 0.91)" fill="none" stroke-linecap="round"></path><path d="M 389.000,179.500 C 416.379,173.845 413.937,173.526 437.000,159.500" stroke-width="1.457" stroke="rgba(11, 11, 170, 0.91)" fill="none" stroke-linecap="round"></path><path d="M 437.000,159.500 C 451.618,147.038 450.879,149.845 458.000,131.500" stroke-width="1.705" stroke="rgba(11, 11, 170, 0.91)" fill="none" stroke-linecap="round"></path><path d="M 458.000,131.500 C 462.392,116.657 463.118,119.038 460.000,103.500" stroke-width="1.928" stroke="rgba(11, 11, 170, 0.91)" fill="none" stroke-linecap="round"></path><path d="M 460.000,103.500 C 457.267,92.188 458.392,94.657 450.000,87.500" stroke-width="2.391" stroke="rgba(11, 11, 170, 0.91)" fill="none" stroke-linecap="round"></path><path d="M 450.000,87.500 C 439.573,83.716 441.767,82.188 429.000,83.500" stroke-width="2.403" stroke="rgba(11, 11, 170, 0.91)" fill="none" stroke-linecap="round"></path><path d="M 429.000,83.500 C 413.665,81.239 415.073,83.216 401.000,86.500" stroke-width="2.196" stroke="rgba(11, 11, 170, 0.91)" fill="none" stroke-linecap="round"></path><path d="M 401.000,86.500 C 380.727,96.428 381.165,94.739 364.000,110.500" stroke-width="1.713" stroke="rgba(11, 11, 170, 0.91)" fill="none" stroke-linecap="round"></path><path d="M 364.000,110.500 C 348.092,123.416 349.227,122.928 338.000,139.500" stroke-width="1.710" stroke="rgba(11, 11, 170, 0.91)" fill="none" stroke-linecap="round"></path><path d="M 338.000,139.500 C 330.571,151.019 332.092,148.916 332.000,161.500" stroke-width="2.095" stroke="rgba(11, 11, 170, 0.91)" fill="none" stroke-linecap="round"></path><path d="M 332.000,161.500 C 335.545,175.045 333.571,173.019 344.000,183.500" stroke-width="2.217" stroke="rgba(11, 11, 170, 0.91)" fill="none" stroke-linecap="round"></path><path d="M 344.000,183.500 C 353.468,190.340 351.545,191.045 364.000,193.500" stroke-width="2.413" stroke="rgba(11, 11, 170, 0.91)" fill="none" stroke-linecap="round"></path><path d="M 364.000,193.500 C 373.982,195.657 373.468,196.340 384.000,195.500" stroke-width="2.526" stroke="rgba(11, 11, 170, 0.91)" fill="none" stroke-linecap="round"></path><path d="M 384.000,195.500 C 407.009,197.933 405.982,195.157 428.000,192.500" stroke-width="1.767" stroke="rgba(11, 11, 170, 0.91)" fill="none" stroke-linecap="round"></path><path d="M 428.000,192.500 C 452.395,186.784 449.509,186.933 469.000,173.500" stroke-width="1.549" stroke="rgba(11, 11, 170, 0.91)" fill="none" stroke-linecap="round"></path><path d="M 469.000,173.500 C 477.743,163.052 477.395,166.784 478.000,152.500" stroke-width="2.017" stroke="rgba(11, 11, 170, 0.91)" fill="none" stroke-linecap="round"></path><path d="M 478.000,152.500 C 477.472,139.667 478.243,142.552 470.000,132.500" stroke-width="2.321" stroke="rgba(11, 11, 170, 0.91)" fill="none" stroke-linecap="round"></path><path d="M 470.000,132.500 C 451.048,114.381 452.972,116.167 429.000,105.500" stroke-width="1.631" stroke="rgba(11, 11, 170, 0.91)" fill="none" stroke-linecap="round"></path><path d="M 429.000,105.500 C 413.495,102.961 415.048,99.881 398.000,103.500" stroke-width="1.866" stroke="rgba(11, 11, 170, 0.91)" fill="none" stroke-linecap="round"></path><path d="M 398.000,103.500 C 355.500,103.049 355.995,104.961 314.000,109.500" stroke-width="1.125" stroke="rgba(11, 11, 170, 0.91)" fill="none" stroke-linecap="round"></path><path d="M 314.000,109.500 C 259.261,120.547 259.000,118.049 205.000,133.500" stroke-width="1.125" stroke="rgba(11, 11, 170, 0.91)" fill="none" stroke-linecap="round"></path><path d="M 205.000,133.500 C 180.753,136.936 181.761,139.047 159.000,146.500" stroke-width="1.217" stroke="rgba(11, 11, 170, 0.91)" fill="none" stroke-linecap="round"></path><path d="M 159.000,146.500 C 119.898,164.209 122.753,162.436 89.000,184.500" stroke-width="1.125" stroke="rgba(11, 11, 170, 0.91)" fill="none" stroke-linecap="round"></path><path d="M 89.000,184.500 C 88.959,189.559 86.398,186.209 92.000,190.500" stroke-width="2.161" stroke="rgba(11, 11, 170, 0.91)" fill="none" stroke-linecap="round"></path><path d="M 92.000,190.500 C 111.333,196.407 109.959,196.059 131.000,197.500" stroke-width="2.449" stroke="rgba(11, 11, 170, 0.91)" fill="none" stroke-linecap="round"></path><path d="M 131.000,197.500 C 156.628,197.894 156.333,198.907 182.000,195.500" stroke-width="1.553" stroke="rgba(11, 11, 170, 0.91)" fill="none" stroke-linecap="round"></path></svg>