<svg xmlns="http://www.w3.org/2000/svg" xmlns:xlink="http://www.w3.org/1999/xlink" viewBox="0 0 532.8 299.73333333333335" width="532.8" height="299.73333333333335"><path d="M 17.267,252.008 C 14.734,249.306 16.233,249.375 15.200,246.742" stroke-width="5.504" stroke="rgba(11, 11, 170, 0.91)" fill="none" stroke-linecap="round"></path><path d="M 15.200,246.742 C 17.700,242.103 16.067,241.972 19.933,237.342" stroke-width="3.973" stroke="rgba(11, 11, 170, 0.91)" fill="none" stroke-linecap="round"></path><path d="M 19.933,237.342 C 21.015,234.470 21.234,234.569 22.267,231.675" stroke-width="3.987" stroke="rgba(11, 11, 170, 0.91)" fill="none" stroke-linecap="round"></path><path d="M 22.267,231.675 C 23.900,228.075 23.881,228.070 25.667,224.542" stroke-width="3.829" stroke="rgba(11, 11, 170, 0.91)" fill="none" stroke-linecap="round"></path><path d="M 25.667,224.542 C 29.298,217.102 29.366,217.142 33.200,209.808" stroke-width="3.017" stroke="rgba(11, 11, 170, 0.91)" fill="none" stroke-linecap="round"></path><path d="M 33.200,209.808 C 35.751,205.246 35.665,205.202 38.400,200.742" stroke-width="3.277" stroke="rgba(11, 11, 170, 0.91)" fill="none" stroke-linecap="round"></path><path d="M 38.400,200.742 C 40.665,197.452 40.417,197.312 42.533,193.942" stroke-width="3.599" stroke="rgba(11, 11, 170, 0.91)" fill="none" stroke-linecap="round"></path><path d="M 42.533,193.942 C 48.523,181.692 48.932,181.919 54.933,169.675" stroke-width="2.382" stroke="rgba(11, 11, 170, 0.91)" fill="none" stroke-linecap="round"></path><path d="M 54.933,169.675 C 57.327,165.265 57.289,165.259 60.067,161.075" stroke-width="3.046" stroke="rgba(11, 11, 170, 0.91)" fill="none" stroke-linecap="round"></path><path d="M 60.067,161.075 C 67.697,149.917 67.461,149.765 75.200,138.675" stroke-width="2.376" stroke="rgba(11, 11, 170, 0.91)" fill="none" stroke-linecap="round"></path><path d="M 75.200,138.675 C 77.913,133.988 78.197,134.184 81.067,129.608" stroke-width="2.988" stroke="rgba(11, 11, 170, 0.91)" fill="none" stroke-linecap="round"></path><path d="M 81.067,129.608 C 88.989,118.603 88.979,118.621 97.333,107.942" stroke-width="2.363" stroke="rgba(11, 11, 170, 0.91)" fill="none" stroke-linecap="round"></path><path d="M 97.333,107.942 C 100.337,104.482 100.155,104.336 103.400,101.075" stroke-width="3.099" stroke="rgba(11, 11, 170, 0.91)" fill="none" stroke-linecap="round"></path><path d="M 103.400,101.075 C 110.936,91.872 111.304,92.282 119.267,83.542" stroke-width="2.468" stroke="rgba(11, 11, 170, 0.91)" fill="none" stroke-linecap="round"></path><path d="M 119.267,83.542 C 122.559,81.064 122.170,80.639 125.867,78.608" stroke-width="3.265" stroke="rgba(11, 11, 170, 0.91)" fill="none" stroke-linecap="round"></path><path d="M 125.867,78.608 C 131.820,72.022 132.525,73.664 139.200,68.742" stroke-width="2.896" stroke="rgba(11, 11, 170, 0.91)" fill="none" stroke-linecap="round"></path><path d="M 139.200,68.742 C 147.230,65.279 145.920,65.755 154.067,66.075" stroke-width="3.487" stroke="rgba(11, 11, 170, 0.91)" fill="none" stroke-linecap="round"></path><path d="M 154.067,66.075 C 157.822,67.979 157.530,66.479 159.800,71.142" stroke-width="4.163" stroke="rgba(11, 11, 170, 0.91)" fill="none" stroke-linecap="round"></path><path d="M 159.800,71.142 C 162.957,76.784 163.055,76.346 164.533,82.808" stroke-width="3.396" stroke="rgba(11, 11, 170, 0.91)" fill="none" stroke-linecap="round"></path><path d="M 164.533,82.808 C 165.459,87.666 165.757,87.484 165.400,92.542" stroke-width="3.517" stroke="rgba(11, 11, 170, 0.91)" fill="none" stroke-linecap="round"></path><path d="M 165.400,92.542 C 165.421,104.358 165.259,104.266 164.133,116.008" stroke-width="2.619" stroke="rgba(11, 11, 170, 0.91)" fill="none" stroke-linecap="round"></path><path d="M 164.133,116.008 C 162.863,123.319 163.321,123.358 161.200,130.542" stroke-width="2.823" stroke="rgba(11, 11, 170, 0.91)" fill="none" stroke-linecap="round"></path><path d="M 161.200,130.542 C 158.750,142.377 158.496,142.286 155.400,153.942" stroke-width="2.391" stroke="rgba(11, 11, 170, 0.91)" fill="none" stroke-linecap="round"></path><path d="M 155.400,153.942 C 153.045,161.450 153.217,161.477 150.133,168.742" stroke-width="2.687" stroke="rgba(11, 11, 170, 0.91)" fill="none" stroke-linecap="round"></path><path d="M 150.133,168.742 C 145.389,180.278 145.511,180.317 140.333,191.675" stroke-width="2.325" stroke="rgba(11, 11, 170, 0.91)" fill="none" stroke-linecap="round"></path><path d="M 140.333,191.675 C 137.936,197.886 137.655,197.712 134.667,203.608" stroke-width="2.856" stroke="rgba(11, 11, 170, 0.91)" fill="none" stroke-linecap="round"></path><path d="M 134.667,203.608 C 130.421,211.025 130.470,210.953 125.400,217.808" stroke-width="2.828" stroke="rgba(11, 11, 170, 0.91)" fill="none" stroke-linecap="round"></path><path d="M 125.400,217.808 C 123.387,222.074 123.488,220.392 120.800,222.342" stroke-width="3.562" stroke="rgba(11, 11, 170, 0.91)" fill="none" stroke-linecap="round"></path><path d="M 120.800,222.342 C 115.502,221.840 117.921,222.640 114.467,218.942" stroke-width="4.241" stroke="rgba(11, 11, 170, 0.91)" fill="none" stroke-linecap="round"></path><path d="M 114.467,218.942 C 114.260,212.627 112.669,213.907 115.133,206.475" stroke-width="3.347" stroke="rgba(11, 11, 170, 0.91)" fill="none" stroke-linecap="round"></path><path d="M 115.133,206.475 C 116.334,201.424 115.860,201.360 117.667,196.408" stroke-width="3.448" stroke="rgba(11, 11, 170, 0.91)" fill="none" stroke-linecap="round"></path><path d="M 117.667,196.408 C 118.538,189.939 119.301,190.258 121.067,184.142" stroke-width="3.221" stroke="rgba(11, 11, 170, 0.91)" fill="none" stroke-linecap="round"></path><path d="M 121.067,184.142 C 125.919,175.403 125.038,175.039 130.667,166.608" stroke-width="2.681" stroke="rgba(11, 11, 170, 0.91)" fill="none" stroke-linecap="round"></path><path d="M 130.667,166.608 C 133.218,160.393 133.819,160.770 136.867,154.875" stroke-width="2.945" stroke="rgba(11, 11, 170, 0.91)" fill="none" stroke-linecap="round"></path><path d="M 136.867,154.875 C 143.000,146.154 142.718,146.027 149.667,137.875" stroke-width="2.552" stroke="rgba(11, 11, 170, 0.91)" fill="none" stroke-linecap="round"></path><path d="M 149.667,137.875 C 153.340,133.279 153.333,133.321 157.533,129.208" stroke-width="3.052" stroke="rgba(11, 11, 170, 0.91)" fill="none" stroke-linecap="round"></path><path d="M 157.533,129.208 C 163.475,122.986 163.607,123.312 170.200,117.942" stroke-width="2.883" stroke="rgba(11, 11, 170, 0.91)" fill="none" stroke-linecap="round"></path><path d="M 170.200,117.942 C 173.312,115.895 173.075,115.786 176.733,114.808" stroke-width="3.465" stroke="rgba(11, 11, 170, 0.91)" fill="none" stroke-linecap="round"></path><path d="M 176.733,114.808 C 181.290,111.980 180.346,113.661 184.267,113.475" stroke-width="3.696" stroke="rgba(11, 11, 170, 0.91)" fill="none" stroke-linecap="round"></path><path d="M 184.267,113.475 C 189.917,117.320 188.724,115.713 191.600,122.275" stroke-width="3.998" stroke="rgba(11, 11, 170, 0.91)" fill="none" stroke-linecap="round"></path><path d="M 191.600,122.275 C 191.154,126.750 192.917,126.153 190.267,131.142" stroke-width="3.772" stroke="rgba(11, 11, 170, 0.91)" fill="none" stroke-linecap="round"></path><path d="M 190.267,131.142 C 188.406,139.768 188.521,139.783 186.333,148.342" stroke-width="2.931" stroke="rgba(11, 11, 170, 0.91)" fill="none" stroke-linecap="round"></path><path d="M 186.333,148.342 C 184.928,153.816 185.006,153.834 183.467,159.275" stroke-width="3.177" stroke="rgba(11, 11, 170, 0.91)" fill="none" stroke-linecap="round"></path><path d="M 183.467,159.275 C 182.509,162.777 182.528,162.783 181.533,166.275" stroke-width="3.632" stroke="rgba(11, 11, 170, 0.91)" fill="none" stroke-linecap="round"></path><path d="M 181.533,166.275 C 179.298,173.742 179.442,173.777 177.333,181.275" stroke-width="3.047" stroke="rgba(11, 11, 170, 0.91)" fill="none" stroke-linecap="round"></path><path d="M 177.333,181.275 C 175.668,187.579 176.698,183.709 176.333,186.208" stroke-width="4.124" stroke="rgba(11, 11, 170, 0.91)" fill="none" stroke-linecap="round"></path><path d="M 176.333,186.208 C 179.935,176.767 179.001,180.713 184.000,167.542" stroke-width="3.659" stroke="rgba(11, 11, 170, 0.91)" fill="none" stroke-linecap="round"></path><path d="M 184.000,167.542 C 185.501,164.105 185.502,164.134 187.467,160.942" stroke-width="3.782" stroke="rgba(11, 11, 170, 0.91)" fill="none" stroke-linecap="round"></path><path d="M 187.467,160.942 C 193.498,151.741 193.268,151.605 199.533,142.542" stroke-width="2.667" stroke="rgba(11, 11, 170, 0.91)" fill="none" stroke-linecap="round"></path><path d="M 199.533,142.542 C 200.997,140.160 201.065,140.207 202.600,137.875" stroke-width="3.600" stroke="rgba(11, 11, 170, 0.91)" fill="none" stroke-linecap="round"></path><path d="M 202.600,137.875 C 204.642,134.106 204.997,134.460 207.533,131.142" stroke-width="3.667" stroke="rgba(11, 11, 170, 0.91)" fill="none" stroke-linecap="round"></path><path d="M 207.533,131.142 C 211.363,125.328 211.209,127.373 215.733,124.408" stroke-width="3.463" stroke="rgba(11, 11, 170, 0.91)" fill="none" stroke-linecap="round"></path><path d="M 215.733,124.408 C 220.613,125.205 218.963,123.728 222.733,127.942" stroke-width="4.140" stroke="rgba(11, 11, 170, 0.91)" fill="none" stroke-linecap="round"></path><path d="M 222.733,127.942 C 223.437,131.193 224.513,130.239 223.533,134.475" stroke-width="4.030" stroke="rgba(11, 11, 170, 0.91)" fill="none" stroke-linecap="round"></path><path d="M 223.533,134.475 C 223.470,140.244 223.703,140.227 223.267,146.008" stroke-width="3.465" stroke="rgba(11, 11, 170, 0.91)" fill="none" stroke-linecap="round"></path><path d="M 223.267,146.008 C 223.118,149.712 223.136,149.711 222.867,153.408" stroke-width="3.770" stroke="rgba(11, 11, 170, 0.91)" fill="none" stroke-linecap="round"></path><path d="M 222.867,153.408 C 220.695,160.608 222.551,158.045 222.133,162.675" stroke-width="3.675" stroke="rgba(11, 11, 170, 0.91)" fill="none" stroke-linecap="round"></path><path d="M 222.133,162.675 C 225.707,162.412 223.061,164.008 227.600,160.208" stroke-width="4.512" stroke="rgba(11, 11, 170, 0.91)" fill="none" stroke-linecap="round"></path><path d="M 227.600,160.208 C 232.357,152.647 233.240,153.645 237.200,145.142" stroke-width="3.031" stroke="rgba(11, 11, 170, 0.91)" fill="none" stroke-linecap="round"></path><path d="M 237.200,145.142 C 240.110,140.748 240.057,140.714 243.000,136.342" stroke-width="3.327" stroke="rgba(11, 11, 170, 0.91)" fill="none" stroke-linecap="round"></path><path d="M 243.000,136.342 C 245.025,132.092 245.510,132.515 248.000,128.675" stroke-width="3.499" stroke="rgba(11, 11, 170, 0.91)" fill="none" stroke-linecap="round"></path><path d="M 248.000,128.675 C 251.910,122.106 250.858,125.392 254.667,122.942" stroke-width="3.590" stroke="rgba(11, 11, 170, 0.91)" fill="none" stroke-linecap="round"></path><path d="M 254.667,122.942 C 259.020,127.361 258.176,124.006 260.533,132.475" stroke-width="3.975" stroke="rgba(11, 11, 170, 0.91)" fill="none" stroke-linecap="round"></path><path d="M 260.533,132.475 C 260.243,136.609 261.654,136.261 259.933,140.742" stroke-width="3.838" stroke="rgba(11, 11, 170, 0.91)" fill="none" stroke-linecap="round"></path><path d="M 259.933,140.742 C 258.160,147.470 259.443,147.276 258.933,153.808" stroke-width="3.284" stroke="rgba(11, 11, 170, 0.91)" fill="none" stroke-linecap="round"></path><path d="M 258.933,153.808 C 259.577,160.500 259.527,158.670 262.667,163.142" stroke-width="3.904" stroke="rgba(11, 11, 170, 0.91)" fill="none" stroke-linecap="round"></path><path d="M 262.667,163.142 C 266.483,164.143 264.644,164.833 269.067,162.475" stroke-width="4.433" stroke="rgba(11, 11, 170, 0.91)" fill="none" stroke-linecap="round"></path><path d="M 269.067,162.475 C 274.710,157.119 275.316,158.442 280.333,151.742" stroke-width="3.193" stroke="rgba(11, 11, 170, 0.91)" fill="none" stroke-linecap="round"></path><path d="M 280.333,151.742 C 283.106,149.081 283.110,149.086 285.867,146.408" stroke-width="3.595" stroke="rgba(11, 11, 170, 0.91)" fill="none" stroke-linecap="round"></path><path d="M 285.867,146.408 C 289.603,140.181 290.406,142.014 294.933,137.608" stroke-width="3.329" stroke="rgba(11, 11, 170, 0.91)" fill="none" stroke-linecap="round"></path><path d="M 294.933,137.608 C 301.576,134.798 299.270,135.515 305.200,137.075" stroke-width="3.929" stroke="rgba(11, 11, 170, 0.91)" fill="none" stroke-linecap="round"></path><path d="M 305.200,137.075 C 306.675,142.844 309.110,139.532 310.000,147.075" stroke-width="4.099" stroke="rgba(11, 11, 170, 0.91)" fill="none" stroke-linecap="round"></path><path d="M 310.000,147.075 C 313.096,151.574 312.675,150.478 317.200,152.342" stroke-width="4.343" stroke="rgba(11, 11, 170, 0.91)" fill="none" stroke-linecap="round"></path><path d="M 317.200,152.342 C 324.059,150.332 323.429,153.507 330.667,150.942" stroke-width="4.062" stroke="rgba(11, 11, 170, 0.91)" fill="none" stroke-linecap="round"></path><path d="M 330.667,150.942 C 336.881,153.043 337.059,151.532 343.200,154.742" stroke-width="4.012" stroke="rgba(11, 11, 170, 0.91)" fill="none" stroke-linecap="round"></path><path d="M 343.200,154.742 C 347.548,156.066 347.547,155.910 352.000,156.675" stroke-width="4.288" stroke="rgba(11, 11, 170, 0.91)" fill="none" stroke-linecap="round"></path><path d="M 352.000,156.675 C 357.829,157.409 357.781,157.466 363.667,157.542" stroke-width="3.504" stroke="rgba(11, 11, 170, 0.91)" fill="none" stroke-linecap="round"></path><path d="M 363.667,157.542 C 368.168,157.853 368.096,157.642 372.533,157.142" stroke-width="3.583" stroke="rgba(11, 11, 170, 0.91)" fill="none" stroke-linecap="round"></path><path d="M 372.533,157.142 C 381.546,155.662 381.468,155.686 390.267,153.208" stroke-width="2.862" stroke="rgba(11, 11, 170, 0.91)" fill="none" stroke-linecap="round"></path><path d="M 390.267,153.208 C 395.462,151.106 395.646,151.695 400.733,149.208" stroke-width="3.212" stroke="rgba(11, 11, 170, 0.91)" fill="none" stroke-linecap="round"></path><path d="M 266.867,193.142 C 273.680,191.443 273.700,191.542 280.533,189.942" stroke-width="4.798" stroke="rgba(11, 11, 170, 0.91)" fill="none" stroke-linecap="round"></path><path d="M 280.533,189.942 C 283.112,189.308 283.113,189.377 285.733,189.008" stroke-width="4.385" stroke="rgba(11, 11, 170, 0.91)" fill="none" stroke-linecap="round"></path><path d="M 285.733,189.008 C 290.457,188.843 290.412,188.474 295.133,188.275" stroke-width="4.357" stroke="rgba(11, 11, 170, 0.91)" fill="none" stroke-linecap="round"></path><path d="M 295.133,188.275 C 300.839,187.069 300.890,187.576 306.600,186.475" stroke-width="3.526" stroke="rgba(11, 11, 170, 0.91)" fill="none" stroke-linecap="round"></path><path d="M 110.533,128.075 C 112.867,127.114 112.767,126.942 115.000,125.808" stroke-width="5.328" stroke="rgba(11, 11, 170, 0.91)" fill="none" stroke-linecap="round"></path><path d="M 115.000,125.808 C 119.691,123.133 119.567,123.014 123.933,119.875" stroke-width="3.786" stroke="rgba(11, 11, 170, 0.91)" fill="none" stroke-linecap="round"></path><path d="M 123.933,119.875 C 127.715,116.342 128.024,116.733 131.667,113.008" stroke-width="3.520" stroke="rgba(11, 11, 170, 0.91)" fill="none" stroke-linecap="round"></path></svg>