<svg xmlns="http://www.w3.org/2000/svg" xmlns:xlink="http://www.w3.org/1999/xlink" viewBox="0 0 532 300" width="532" height="300"><path d="M 52.000,182.500 C 61.936,179.931 61.500,179.000 71.000,175.500" stroke-width="4.643" stroke="rgba(11, 11, 170, 0.91)" fill="none" stroke-linecap="round"></path><path d="M 71.000,175.500 C 83.557,167.134 84.436,168.931 97.000,160.500" stroke-width="2.446" stroke="rgba(11, 11, 170, 0.91)" fill="none" stroke-linecap="round"></path><path d="M 97.000,160.500 C 123.065,150.105 122.057,148.134 148.000,137.500" stroke-width="1.523" stroke="rgba(11, 11, 170, 0.91)" fill="none" stroke-linecap="round"></path><path d="M 148.000,137.500 C 169.056,127.539 168.565,127.105 188.000,114.500" stroke-width="1.470" stroke="rgba(11, 11, 170, 0.91)" fill="none" stroke-linecap="round"></path><path d="M 188.000,114.500 C 207.794,100.816 207.556,101.039 225.000,84.500" stroke-width="1.477" stroke="rgba(11, 11, 170, 0.91)" fill="none" stroke-linecap="round"></path><path d="M 225.000,84.500 C 235.894,72.301 236.794,73.316 246.000,59.500" stroke-width="1.765" stroke="rgba(11, 11, 170, 0.91)" fill="none" stroke-linecap="round"></path><path d="M 246.000,59.500 C 255.982,47.236 250.894,53.301 255.000,46.500" stroke-width="2.396" stroke="rgba(11, 11, 170, 0.91)" fill="none" stroke-linecap="round"></path><path d="M 255.000,46.500 C 247.596,50.575 253.982,45.736 242.000,56.500" stroke-width="3.607" stroke="rgba(11, 11, 170, 0.91)" fill="none" stroke-linecap="round"></path><path d="M 242.000,56.500 C 232.423,70.363 230.596,68.575 221.000,82.500" stroke-width="2.211" stroke="rgba(11, 11, 170, 0.91)" fill="none" stroke-linecap="round"></path><path d="M 221.000,82.500 C 207.140,94.634 208.423,95.863 194.000,107.500" stroke-width="1.889" stroke="rgba(11, 11, 170, 0.91)" fill="none" stroke-linecap="round"></path><path d="M 194.000,107.500 C 183.096,118.142 183.140,118.134 173.000,129.500" stroke-width="1.977" stroke="rgba(11, 11, 170, 0.91)" fill="none" stroke-linecap="round"></path><path d="M 173.000,129.500 C 163.579,141.067 163.096,140.642 154.000,152.500" stroke-width="1.968" stroke="rgba(11, 11, 170, 0.91)" fill="none" stroke-linecap="round"></path><path d="M 154.000,152.500 C 146.952,158.907 148.079,159.567 142.000,166.500" stroke-width="2.428" stroke="rgba(11, 11, 170, 0.91)" fill="none" stroke-linecap="round"></path><path d="M 142.000,166.500 C 138.687,171.428 139.452,170.407 139.000,175.500" stroke-width="3.189" stroke="rgba(11, 11, 170, 0.91)" fill="none" stroke-linecap="round"></path><path d="M 139.000,175.500 C 140.608,179.659 139.187,177.928 143.000,179.500" stroke-width="4.145" stroke="rgba(11, 11, 170, 0.91)" fill="none" stroke-linecap="round"></path><path d="M 143.000,179.500 C 148.890,177.672 148.108,179.159 154.000,174.500" stroke-width="3.506" stroke="rgba(11, 11, 170, 0.91)" fill="none" stroke-linecap="round"></path><path d="M 154.000,174.500 C 162.738,167.609 163.390,168.672 172.000,161.500" stroke-width="2.613" stroke="rgba(11, 11, 170, 0.91)" fill="none" stroke-linecap="round"></path><path d="M 172.000,161.500 C 186.247,152.066 186.238,152.109 201.000,143.500" stroke-width="2.045" stroke="rgba(11, 11, 170, 0.91)" fill="none" stroke-linecap="round"></path><path d="M 201.000,143.500 C 217.547,134.586 217.247,134.066 234.000,125.500" stroke-width="1.830" stroke="rgba(11, 11, 170, 0.91)" fill="none" stroke-linecap="round"></path><path d="M 234.000,125.500 C 251.072,116.126 251.047,116.086 268.000,106.500" stroke-width="1.691" stroke="rgba(11, 11, 170, 0.91)" fill="none" stroke-linecap="round"></path><path d="M 268.000,106.500 C 276.419,101.350 276.572,101.626 285.000,96.500" stroke-width="2.241" stroke="rgba(11, 11, 170, 0.91)" fill="none" stroke-linecap="round"></path><path d="M 285.000,96.500 C 290.769,92.807 287.919,94.850 291.000,93.500" stroke-width="3.221" stroke="rgba(11, 11, 170, 0.91)" fill="none" stroke-linecap="round"></path><path d="M 291.000,93.500 C 287.722,96.056 291.269,94.307 286.000,99.500" stroke-width="4.181" stroke="rgba(11, 11, 170, 0.91)" fill="none" stroke-linecap="round"></path><path d="M 286.000,99.500 C 283.588,106.532 282.722,106.056 281.000,113.500" stroke-width="3.207" stroke="rgba(11, 11, 170, 0.91)" fill="none" stroke-linecap="round"></path><path d="M 281.000,113.500 C 277.383,124.168 277.088,124.032 273.000,134.500" stroke-width="2.546" stroke="rgba(11, 11, 170, 0.91)" fill="none" stroke-linecap="round"></path><path d="M 273.000,134.500 C 269.073,140.281 270.383,140.668 267.000,146.500" stroke-width="2.937" stroke="rgba(11, 11, 170, 0.91)" fill="none" stroke-linecap="round"></path><path d="M 267.000,146.500 C 265.221,153.442 266.073,149.281 267.000,152.500" stroke-width="3.697" stroke="rgba(11, 11, 170, 0.91)" fill="none" stroke-linecap="round"></path><path d="M 267.000,152.500 C 275.707,145.221 273.721,148.942 284.000,137.500" stroke-width="4.076" stroke="rgba(11, 11, 170, 0.91)" fill="none" stroke-linecap="round"></path><path d="M 284.000,137.500 C 289.559,130.986 290.207,131.721 296.000,125.500" stroke-width="3.103" stroke="rgba(11, 11, 170, 0.91)" fill="none" stroke-linecap="round"></path><path d="M 296.000,125.500 C 305.513,113.922 303.059,119.486 311.000,114.500" stroke-width="2.799" stroke="rgba(11, 11, 170, 0.91)" fill="none" stroke-linecap="round"></path><path d="M 311.000,114.500 C 314.072,120.815 315.013,114.922 315.000,127.500" stroke-width="3.757" stroke="rgba(11, 11, 170, 0.91)" fill="none" stroke-linecap="round"></path><path d="M 315.000,127.500 C 314.200,139.337 316.572,138.815 316.000,150.500" stroke-width="2.682" stroke="rgba(11, 11, 170, 0.91)" fill="none" stroke-linecap="round"></path><path d="M 316.000,150.500 C 317.881,154.565 316.700,154.837 320.000,158.500" stroke-width="3.269" stroke="rgba(11, 11, 170, 0.91)" fill="none" stroke-linecap="round"></path><path d="M 320.000,158.500 C 320.675,162.144 321.381,161.065 323.000,163.500" stroke-width="3.863" stroke="rgba(11, 11, 170, 0.91)" fill="none" stroke-linecap="round"></path><path d="M 323.000,163.500 C 327.432,165.119 326.675,165.644 332.000,165.500" stroke-width="3.652" stroke="rgba(11, 11, 170, 0.91)" fill="none" stroke-linecap="round"></path><path d="M 332.000,165.500 C 339.666,166.752 339.432,166.119 347.000,165.500" stroke-width="3.161" stroke="rgba(11, 11, 170, 0.91)" fill="none" stroke-linecap="round"></path><path d="M 347.000,165.500 C 359.942,161.764 360.166,163.252 373.000,158.500" stroke-width="2.332" stroke="rgba(11, 11, 170, 0.91)" fill="none" stroke-linecap="round"></path><path d="M 373.000,158.500 C 381.955,156.239 381.942,156.264 391.000,154.500" stroke-width="2.577" stroke="rgba(11, 11, 170, 0.91)" fill="none" stroke-linecap="round"></path><path d="M 391.000,154.500 C 394.981,153.691 394.955,153.739 399.000,153.500" stroke-width="3.294" stroke="rgba(11, 11, 170, 0.91)" fill="none" stroke-linecap="round"></path><path d="M 399.000,153.500 C 408.983,151.086 405.481,153.191 412.000,153.500" stroke-width="4.259" stroke="rgba(11, 11, 170, 0.91)" fill="none" stroke-linecap="round"></path></svg>