<svg xmlns="http://www.w3.org/2000/svg" xmlns:xlink="http://www.w3.org/1999/xlink" viewBox="0 0 298 300" width="298" height="300"><path d="M 26.142,251.411 C 27.251,243.363 27.444,243.401 28.746,235.391" stroke-width="4.975" stroke="rgba(11, 11, 170, 0.91)" fill="none" stroke-linecap="round"></path><path d="M 28.746,235.391 C 29.630,231.211 29.532,231.197 30.704,227.079" stroke-width="3.981" stroke="rgba(11, 11, 170, 0.91)" fill="none" stroke-linecap="round"></path><path d="M 30.704,227.079 C 34.442,212.644 34.453,212.649 38.391,198.267" stroke-width="2.316" stroke="rgba(11, 11, 170, 0.91)" fill="none" stroke-linecap="round"></path><path d="M 38.391,198.267 C 42.076,184.434 42.181,184.467 46.182,170.726" stroke-width="2.158" stroke="rgba(11, 11, 170, 0.91)" fill="none" stroke-linecap="round"></path><path d="M 46.182,170.726 C 50.450,155.348 50.753,155.466 55.744,140.331" stroke-width="1.895" stroke="rgba(11, 11, 170, 0.91)" fill="none" stroke-linecap="round"></path><path d="M 55.744,140.331 C 61.110,124.945 61.148,125.005 67.577,110.040" stroke-width="1.867" stroke="rgba(11, 11, 170, 0.91)" fill="none" stroke-linecap="round"></path><path d="M 67.577,110.040 C 73.458,96.951 73.276,96.904 80.076,84.249" stroke-width="1.968" stroke="rgba(11, 11, 170, 0.91)" fill="none" stroke-linecap="round"></path><path d="M 80.076,84.249 C 85.756,73.114 85.832,73.202 92.326,62.541" stroke-width="2.177" stroke="rgba(11, 11, 170, 0.91)" fill="none" stroke-linecap="round"></path><path d="M 92.326,62.541 C 97.343,54.290 97.380,54.406 103.325,46.833" stroke-width="2.431" stroke="rgba(11, 11, 170, 0.91)" fill="none" stroke-linecap="round"></path><path d="M 103.325,46.833 C 107.657,41.238 107.655,41.436 112.950,36.833" stroke-width="2.810" stroke="rgba(11, 11, 170, 0.91)" fill="none" stroke-linecap="round"></path><path d="M 112.950,36.833 C 117.250,32.700 117.094,33.384 122.199,31.125" stroke-width="3.167" stroke="rgba(11, 11, 170, 0.91)" fill="none" stroke-linecap="round"></path><path d="M 122.199,31.125 C 126.868,29.694 125.562,30.054 129.574,31.541" stroke-width="3.615" stroke="rgba(11, 11, 170, 0.91)" fill="none" stroke-linecap="round"></path><path d="M 129.574,31.541 C 133.174,35.087 132.972,33.861 134.407,39.458" stroke-width="3.577" stroke="rgba(11, 11, 170, 0.91)" fill="none" stroke-linecap="round"></path><path d="M 134.407,39.458 C 136.579,47.677 136.611,47.274 136.449,55.916" stroke-width="2.965" stroke="rgba(11, 11, 170, 0.91)" fill="none" stroke-linecap="round"></path><path d="M 136.449,55.916 C 135.603,68.766 136.246,68.676 133.740,81.457" stroke-width="2.351" stroke="rgba(11, 11, 170, 0.91)" fill="none" stroke-linecap="round"></path><path d="M 133.740,81.457 C 132.379,90.078 132.478,90.057 130.199,98.498" stroke-width="2.581" stroke="rgba(11, 11, 170, 0.91)" fill="none" stroke-linecap="round"></path><path d="M 130.199,98.498 C 126.016,115.257 125.879,115.182 120.741,131.664" stroke-width="2.028" stroke="rgba(11, 11, 170, 0.91)" fill="none" stroke-linecap="round"></path><path d="M 120.741,131.664 C 115.632,146.905 115.828,146.944 109.825,161.872" stroke-width="1.915" stroke="rgba(11, 11, 170, 0.91)" fill="none" stroke-linecap="round"></path><path d="M 109.825,161.872 C 104.993,174.048 105.091,174.071 99.659,185.996" stroke-width="2.115" stroke="rgba(11, 11, 170, 0.91)" fill="none" stroke-linecap="round"></path><path d="M 99.659,185.996 C 96.467,193.631 96.306,193.506 92.451,200.787" stroke-width="2.537" stroke="rgba(11, 11, 170, 0.91)" fill="none" stroke-linecap="round"></path><path d="M 92.451,200.787 C 87.660,210.781 89.780,205.547 86.285,209.829" stroke-width="3.050" stroke="rgba(11, 11, 170, 0.91)" fill="none" stroke-linecap="round"></path><path d="M 86.285,209.829 C 84.856,202.927 84.619,208.677 86.368,196.579" stroke-width="3.910" stroke="rgba(11, 11, 170, 0.91)" fill="none" stroke-linecap="round"></path><path d="M 86.368,196.579 C 89.801,185.690 88.960,185.699 94.493,175.371" stroke-width="2.647" stroke="rgba(11, 11, 170, 0.91)" fill="none" stroke-linecap="round"></path><path d="M 94.493,175.371 C 99.473,164.754 99.321,164.753 105.409,154.705" stroke-width="2.383" stroke="rgba(11, 11, 170, 0.91)" fill="none" stroke-linecap="round"></path><path d="M 105.409,154.705 C 110.528,145.939 110.535,146.025 116.616,137.914" stroke-width="2.512" stroke="rgba(11, 11, 170, 0.91)" fill="none" stroke-linecap="round"></path><path d="M 116.616,137.914 C 121.895,130.903 121.861,131.001 128.074,124.831" stroke-width="2.638" stroke="rgba(11, 11, 170, 0.91)" fill="none" stroke-linecap="round"></path><path d="M 128.074,124.831 C 132.801,120.220 132.686,120.299 138.199,116.706" stroke-width="2.949" stroke="rgba(11, 11, 170, 0.91)" fill="none" stroke-linecap="round"></path><path d="M 138.199,116.706 C 142.275,113.105 141.634,114.470 145.740,113.331" stroke-width="3.443" stroke="rgba(11, 11, 170, 0.91)" fill="none" stroke-linecap="round"></path><path d="M 145.740,113.331 C 149.440,114.725 148.337,113.501 150.323,117.498" stroke-width="4.243" stroke="rgba(11, 11, 170, 0.91)" fill="none" stroke-linecap="round"></path><path d="M 150.323,117.498 C 151.535,124.259 152.253,123.558 151.365,130.997" stroke-width="3.328" stroke="rgba(11, 11, 170, 0.91)" fill="none" stroke-linecap="round"></path><path d="M 151.365,130.997 C 150.673,139.132 151.160,139.113 149.573,147.205" stroke-width="2.929" stroke="rgba(11, 11, 170, 0.91)" fill="none" stroke-linecap="round"></path><path d="M 149.573,147.205 C 148.907,151.202 149.027,151.215 148.073,155.164" stroke-width="3.450" stroke="rgba(11, 11, 170, 0.91)" fill="none" stroke-linecap="round"></path><path d="M 148.073,155.164 C 146.507,161.966 146.636,161.993 145.032,168.788" stroke-width="3.189" stroke="rgba(11, 11, 170, 0.91)" fill="none" stroke-linecap="round"></path><path d="M 145.032,168.788 C 143.883,174.005 143.903,174.008 142.865,179.246" stroke-width="3.316" stroke="rgba(11, 11, 170, 0.91)" fill="none" stroke-linecap="round"></path><path d="M 142.865,179.246 C 140.617,187.189 142.216,182.588 141.698,185.954" stroke-width="4.156" stroke="rgba(11, 11, 170, 0.91)" fill="none" stroke-linecap="round"></path><path d="M 141.698,185.954 C 146.161,178.000 144.596,182.647 150.823,170.163" stroke-width="3.797" stroke="rgba(11, 11, 170, 0.91)" fill="none" stroke-linecap="round"></path><path d="M 150.823,170.163 C 154.726,163.156 154.911,163.292 159.197,156.539" stroke-width="3.050" stroke="rgba(11, 11, 170, 0.91)" fill="none" stroke-linecap="round"></path><path d="M 159.197,156.539 C 162.484,151.367 162.580,151.532 166.530,146.914" stroke-width="3.263" stroke="rgba(11, 11, 170, 0.91)" fill="none" stroke-linecap="round"></path><path d="M 166.530,146.914 C 169.345,143.534 169.317,143.847 172.863,141.497" stroke-width="3.556" stroke="rgba(11, 11, 170, 0.91)" fill="none" stroke-linecap="round"></path><path d="M 172.863,141.497 C 177.330,138.362 175.282,140.097 178.405,140.039" stroke-width="4.327" stroke="rgba(11, 11, 170, 0.91)" fill="none" stroke-linecap="round"></path><path d="M 178.405,140.039 C 179.153,145.863 180.601,143.466 179.405,151.705" stroke-width="4.179" stroke="rgba(11, 11, 170, 0.91)" fill="none" stroke-linecap="round"></path><path d="M 179.405,151.705 C 179.301,156.018 179.590,156.009 179.280,160.330" stroke-width="3.798" stroke="rgba(11, 11, 170, 0.91)" fill="none" stroke-linecap="round"></path><path d="M 179.280,160.330 C 179.186,164.334 179.260,164.330 179.321,168.330" stroke-width="3.764" stroke="rgba(11, 11, 170, 0.91)" fill="none" stroke-linecap="round"></path><path d="M 179.321,168.330 C 177.858,175.005 179.436,171.709 179.780,175.080" stroke-width="3.942" stroke="rgba(11, 11, 170, 0.91)" fill="none" stroke-linecap="round"></path><path d="M 179.780,175.080 C 185.181,172.280 183.191,175.213 189.988,168.747" stroke-width="4.328" stroke="rgba(11, 11, 170, 0.91)" fill="none" stroke-linecap="round"></path><path d="M 189.988,168.747 C 191.904,166.787 192.181,167.135 193.779,164.788" stroke-width="4.230" stroke="rgba(11, 11, 170, 0.91)" fill="none" stroke-linecap="round"></path><path d="M 193.779,164.788 C 198.553,158.976 198.882,159.350 203.945,153.872" stroke-width="3.211" stroke="rgba(11, 11, 170, 0.91)" fill="none" stroke-linecap="round"></path><path d="M 203.945,153.872 C 207.476,149.092 206.344,151.601 209.362,150.039" stroke-width="3.753" stroke="rgba(11, 11, 170, 0.91)" fill="none" stroke-linecap="round"></path><path d="M 209.362,150.039 C 211.771,154.039 211.914,151.321 212.820,158.330" stroke-width="4.402" stroke="rgba(11, 11, 170, 0.91)" fill="none" stroke-linecap="round"></path><path d="M 212.820,158.330 C 211.249,162.798 213.583,161.456 212.986,164.872" stroke-width="4.586" stroke="rgba(11, 11, 170, 0.91)" fill="none" stroke-linecap="round"></path><path d="M 212.986,164.872 C 216.707,167.435 215.124,167.423 220.569,167.580" stroke-width="4.866" stroke="rgba(11, 11, 170, 0.91)" fill="none" stroke-linecap="round"></path><path d="M 220.569,167.580 C 225.088,166.429 225.040,167.748 229.652,165.497" stroke-width="3.932" stroke="rgba(11, 11, 170, 0.91)" fill="none" stroke-linecap="round"></path><path d="M 229.652,165.497 C 233.984,164.718 233.963,164.616 238.318,163.955" stroke-width="3.715" stroke="rgba(11, 11, 170, 0.91)" fill="none" stroke-linecap="round"></path><path d="M 238.318,163.955 C 242.851,163.112 242.859,163.156 247.401,162.372" stroke-width="3.611" stroke="rgba(11, 11, 170, 0.91)" fill="none" stroke-linecap="round"></path><path d="M 247.401,162.372 C 251.437,161.729 251.434,161.716 255.484,161.163" stroke-width="3.740" stroke="rgba(11, 11, 170, 0.91)" fill="none" stroke-linecap="round"></path><path d="M 255.484,161.163 C 259.061,160.799 259.041,160.666 262.609,160.247" stroke-width="3.838" stroke="rgba(11, 11, 170, 0.91)" fill="none" stroke-linecap="round"></path><path d="M 262.609,160.247 C 265.635,159.797 265.623,159.778 268.608,159.122" stroke-width="3.999" stroke="rgba(11, 11, 170, 0.91)" fill="none" stroke-linecap="round"></path><circle r="1.5" cx="235.5892105102539" cy="115.93521118164062" fill="rgba(11, 11, 170, 0.91)"></circle><path d="M 93.326,106.665 C 97.371,105.096 97.190,104.790 101.055,102.915" stroke-width="5.331" stroke="rgba(11, 11, 170, 0.91)" fill="none" stroke-linecap="round"></path></svg>